# xmcd
#
# Track frame offsets: 
#        150
#        27996
#        49970
#        69660
#        90159
#        107511
#        126353
#        152882
#        173867
#        192961
#        216510
#        238302
#        259721
#        286702
#        314234
#
# Disc length: 4364 seconds
#
# Revision: 0
# Processed by: cddbd v1.4PL0 Copyright (c) Steve Scherf et al.
# Submitted via: ExactAudioCopy v0.90b4
#
DISCID=e0110a0f
DTITLE=Manic Street Preachers - This is my truth Tell me yours
DYEAR=1996
DGENRE=Blues
TTITLE0=The Evelasting
TTITLE1=If you could tolerate this Your children will be next
TTITLE2=You stole the sun from my heart
TTITLE3=Ready for drowning
TTITLE4=Tsunami
TTITLE5=My little Empire
TTITLE6=I´m not working
TTITLE7=You´re tender and you´re tired
TTITLE8=Born a girl
TTITLE9=Be natural
TTITLE10=Black Dog on my shoulder
TTITLE11=Nobody loved you
TTITLE12=S.Y.M.M.
TTITLE13=???
TTITLE14=????
EXTD=
EXTT0=
EXTT1=
EXTT2=
EXTT3=
EXTT4=
EXTT5=
EXTT6=
EXTT7=
EXTT8=
EXTT9=
EXTT10=
EXTT11=
EXTT12=
EXTT13=
EXTT14=
PLAYORDER=
